<?xml version="1.0" encoding="UTF-8"?>
<svg id="Layer_1" data-name="Layer 1" xmlns="http://www.w3.org/2000/svg" version="1.1" viewBox="0 0 2189.61 1024.51">
  <defs>
    <style>
      .cls-1, .cls-2, .cls-3, .cls-4, .cls-5 {
        stroke-width: 0px;
      }

      .cls-1, .cls-6 {
        fill: #2b318c;
      }

      .cls-7 {
        stroke: #cf2027;
      }

      .cls-7, .cls-8, .cls-9, .cls-10, .cls-11, .cls-6 {
        stroke-miterlimit: 10;
      }

      .cls-7, .cls-8, .cls-10, .cls-11 {
        fill: none;
      }

      .cls-7, .cls-10, .cls-11 {
        stroke-width: 9px;
      }

      .cls-2 {
        fill: #000;
      }

      .cls-8 {
        stroke: #3953a5;
      }

      .cls-9, .cls-3 {
        fill: #cf2027;
      }

      .cls-9, .cls-6 {
        stroke: #fff;
      }

      .cls-10 {
        stroke: #231f20;
      }

      .cls-11 {
        stroke: #2b318c;
      }

      .cls-4 {
        fill: #231f20;
      }

      .cls-5 {
        fill: #fff;
      }
    </style>
  </defs>
  <polygon class="cls-8" points="416.76 113.95 1774.47 113.95 1943.38 243.88 1943.38 773.32 1774.47 906.5 416.76 906.5 241.36 766.83 241.36 243.88 416.76 113.95"/>
  <polygon class="cls-11" points="559.68 435.52 676.61 364.06 800.04 435.52 800.04 576.81 679.86 646.65 559.68 575.19 559.68 435.52"/>
  <polygon class="cls-7" points="1396.59 435.52 1513.52 364.06 1636.95 435.52 1636.95 576.81 1516.77 646.65 1396.59 575.19 1396.59 435.52"/>
  <line class="cls-10" x1="977.06" y1="113.95" x2="977.06" y2="906.5"/>
  <line class="cls-10" x1="1214.17" y1="113.95" x2="1214.17" y2="906.5"/>
  <rect class="cls-7" x="783.8" y="906.5" width="230.62" height="105.56"/>
  <rect class="cls-11" x="1183.32" y="8.39" width="230.62" height="105.56"/>
  <rect class="cls-7" x="1032.28" y="532.96" width="118.56" height="373.53"/>
  <rect class="cls-11" x="1032.28" y="113.95" width="118.56" height="373.53"/>
  <polygon class="cls-3" points="1774.47 901.25 1774.47 946.72 2188.61 946.72 2188.61 772.95 1943.38 772.95 1774.47 901.25"/>
  <polygon class="cls-3" points="1774.47 115.2 1774.47 69.73 2188.61 69.73 2188.61 243.5 1943.38 243.5 1774.47 115.2"/>
  <polygon class="cls-3" points="1774.47 901.25 1774.47 946.72 2188.61 946.72 2188.61 772.95 1943.38 772.95 1774.47 901.25"/>
  <polygon class="cls-3" points="1774.47 115.2 1774.47 69.73 2188.61 69.73 2188.61 243.5 1943.38 243.5 1774.47 115.2"/>
  <rect class="cls-9" x="1944.38" y="243.5" width="245.23" height="529.44"/>
  <polygon class="cls-1" points="415.14 900.38 415.14 945.85 1 945.85 1 772.08 246.23 772.08 415.14 900.38"/>
  <polygon class="cls-1" points="415.14 114.33 415.14 68.86 1 68.86 1 242.63 246.23 242.63 415.14 114.33"/>
  <rect class="cls-6" x="0" y="242.63" width="245.23" height="529.44" transform="translate(245.23 1014.71) rotate(-180)"/>
  <path class="cls-4" d="M1664.16,557.74l-1.89,5.72h-2.43l6.18-18.19h2.83l6.21,18.19h-2.51l-1.94-5.72h-6.45ZM1670.12,555.9l-1.78-5.24c-.41-1.19-.67-2.27-.95-3.32h-.05c-.27,1.08-.57,2.19-.92,3.29l-1.78,5.26h5.48Z"/>
  <path class="cls-4" d="M1661.22,459.51c1.03-.22,2.64-.38,4.29-.38,2.35,0,3.86.4,4.99,1.32.94.7,1.51,1.78,1.51,3.21,0,1.75-1.16,3.29-3.08,4v.05c1.73.43,3.75,1.86,3.75,4.56,0,1.57-.62,2.75-1.54,3.64-1.27,1.16-3.32,1.7-6.29,1.7-1.62,0-2.86-.11-3.64-.22v-17.9ZM1663.56,466.96h2.13c2.48,0,3.94-1.3,3.94-3.05,0-2.13-1.62-2.97-4-2.97-1.08,0-1.7.08-2.08.16v5.86ZM1663.56,475.68c.46.08,1.13.11,1.97.11,2.43,0,4.67-.89,4.67-3.54,0-2.48-2.13-3.51-4.7-3.51h-1.94v6.94Z"/>
  <path class="cls-4" d="M1633.8,397.55c-.86.43-2.59.86-4.8.86-5.13,0-8.99-3.24-8.99-9.2s3.86-9.56,9.5-9.56c2.27,0,3.7.49,4.32.81l-.57,1.92c-.89-.43-2.16-.76-3.67-.76-4.26,0-7.1,2.73-7.1,7.5,0,4.45,2.56,7.31,6.99,7.31,1.43,0,2.89-.3,3.83-.76l.49,1.86Z"/>
  <path class="cls-4" d="M1561,346.11c1.43-.22,3.13-.38,4.99-.38,3.37,0,5.78.78,7.37,2.27,1.62,1.48,2.56,3.59,2.56,6.53s-.92,5.4-2.62,7.07c-1.7,1.7-4.51,2.62-8.04,2.62-1.67,0-3.08-.08-4.26-.22v-17.9ZM1563.35,362.2c.59.11,1.46.13,2.38.13,5.02,0,7.75-2.81,7.75-7.72.03-4.29-2.4-7.02-7.37-7.02-1.21,0-2.13.11-2.75.24v14.36Z"/>
  <path class="cls-4" d="M1460.53,355.53h-7.07v6.56h7.88v1.97h-10.23v-18.19h9.83v1.97h-7.48v5.75h7.07v1.94Z"/>
  <path class="cls-4" d="M1392.19,379.95h9.8v1.97h-7.45v6.05h6.88v1.94h-6.88v8.23h-2.35v-18.19Z"/>
  <path class="cls-4" d="M1365.82,476.65c-1.05.38-3.13,1-5.59,1-2.75,0-5.02-.7-6.8-2.4-1.57-1.51-2.54-3.94-2.54-6.78.03-5.43,3.75-9.39,9.85-9.39,2.11,0,3.75.46,4.54.84l-.57,1.92c-.97-.43-2.19-.78-4.02-.78-4.43,0-7.32,2.75-7.32,7.31s2.78,7.34,7.02,7.34c1.54,0,2.59-.22,3.13-.49v-5.43h-3.7v-1.89h5.99v8.75Z"/>
  <path class="cls-4" d="M1354.99,540.73v7.61h8.8v-7.61h2.38v18.19h-2.38v-8.53h-8.8v8.53h-2.35v-18.19h2.35Z"/>
  <path class="cls-4" d="M1395.21,619.23v18.19h-2.35v-18.19h2.35Z"/>
  <path class="cls-4" d="M1455.51,655.5h2.35v12.17c0,4.83-2.38,6.32-5.51,6.32-.86,0-1.92-.19-2.51-.43l.35-1.92c.49.19,1.19.35,1.97.35,2.11,0,3.35-.95,3.35-4.51v-11.99Z"/>
  <path class="cls-4" d="M1561.68,655.5h2.35v8.77h.08c.49-.7.97-1.35,1.43-1.94l5.56-6.83h2.92l-6.59,7.72,7.1,10.47h-2.78l-5.99-8.93-1.73,2v6.94h-2.35v-18.19Z"/>
  <path class="cls-4" d="M1619.4,619.23h2.35v16.22h7.77v1.97h-10.12v-18.19Z"/>
  <path class="cls-4" d="M840.21,562.65c-1.05.38-3.13,1-5.59,1-2.75,0-5.02-.7-6.8-2.4-1.57-1.51-2.54-3.94-2.54-6.78.03-5.42,3.75-9.39,9.85-9.39,2.11,0,3.75.46,4.54.84l-.57,1.92c-.97-.43-2.19-.78-4.02-.78-4.43,0-7.32,2.75-7.32,7.31s2.78,7.34,7.02,7.34c1.54,0,2.59-.22,3.13-.49v-5.43h-3.7v-1.89h5.99v8.75Z"/>
  <path class="cls-4" d="M828.71,459.27v7.61h8.8v-7.61h2.38v18.19h-2.38v-8.53h-8.8v8.53h-2.35v-18.19h2.35Z"/>
  <path class="cls-4" d="M788.59,379.95v18.19h-2.35v-18.19h2.35Z"/>
  <path class="cls-4" d="M616.25,345.87h2.35v8.77h.08c.49-.7.97-1.35,1.43-1.94l5.56-6.83h2.92l-6.59,7.72,7.1,10.47h-2.78l-5.99-8.93-1.73,2v6.94h-2.35v-18.19Z"/>
  <path class="cls-4" d="M736.56,345.87h2.35v12.17c0,4.83-2.38,6.32-5.51,6.32-.86,0-1.92-.19-2.51-.43l.35-1.92c.49.19,1.19.35,1.97.35,2.11,0,3.35-.94,3.35-4.51v-11.98Z"/>
  <path class="cls-4" d="M557.34,379.95h2.35v16.22h7.77v1.97h-10.12v-18.19Z"/>
  <path class="cls-4" d="M520.06,471.74l-1.89,5.72h-2.43l6.18-18.19h2.83l6.21,18.19h-2.51l-1.94-5.72h-6.45ZM526.03,469.9l-1.78-5.24c-.41-1.19-.67-2.27-.95-3.32h-.05c-.27,1.08-.57,2.19-.92,3.29l-1.78,5.26h5.48Z"/>
  <path class="cls-4" d="M517.8,540.98c1.03-.22,2.64-.38,4.29-.38,2.35,0,3.86.4,4.99,1.32.94.7,1.51,1.78,1.51,3.21,0,1.75-1.16,3.29-3.08,4v.05c1.73.43,3.75,1.86,3.75,4.56,0,1.57-.62,2.75-1.54,3.64-1.27,1.16-3.32,1.7-6.29,1.7-1.62,0-2.86-.11-3.64-.22v-17.9ZM520.14,548.43h2.13c2.48,0,3.94-1.3,3.94-3.05,0-2.13-1.62-2.97-4-2.97-1.08,0-1.7.08-2.08.16v5.86ZM520.14,557.14c.46.08,1.13.11,1.97.11,2.43,0,4.67-.89,4.67-3.54,0-2.48-2.13-3.51-4.7-3.51h-1.94v6.94Z"/>
  <path class="cls-4" d="M570.73,636.83c-.86.43-2.59.86-4.8.86-5.13,0-8.99-3.24-8.99-9.2s3.86-9.56,9.5-9.56c2.27,0,3.7.49,4.32.81l-.57,1.92c-.89-.43-2.16-.76-3.67-.76-4.26,0-7.1,2.73-7.1,7.5,0,4.45,2.56,7.31,6.99,7.31,1.43,0,2.89-.3,3.83-.76l.48,1.86Z"/>
  <path class="cls-4" d="M616.93,655.74c1.43-.22,3.13-.38,4.99-.38,3.37,0,5.78.78,7.37,2.27,1.62,1.48,2.56,3.59,2.56,6.53s-.92,5.4-2.62,7.07c-1.7,1.7-4.51,2.62-8.04,2.62-1.67,0-3.08-.08-4.26-.22v-17.9ZM619.28,671.83c.59.11,1.46.13,2.38.13,5.02,0,7.75-2.81,7.75-7.72.03-4.29-2.4-7.02-7.37-7.02-1.21,0-2.13.11-2.75.24v14.36Z"/>
  <path class="cls-4" d="M736.24,665.16h-7.07v6.56h7.88v1.97h-10.23v-18.19h9.83v1.97h-7.48v5.75h7.07v1.94Z"/>
  <path class="cls-4" d="M784.55,619.23h9.8v1.97h-7.45v6.05h6.88v1.94h-6.88v8.23h-2.35v-18.19Z"/>
  <g>
    <path class="cls-2" d="M1486.34,478.37c1.19-.24,2.89-.38,4.51-.38,2.51,0,4.13.46,5.26,1.48.92.81,1.43,2.05,1.43,3.46,0,2.4-1.51,4-3.43,4.64v.08c1.4.49,2.24,1.78,2.67,3.67.59,2.54,1.03,4.29,1.4,4.99h-2.43c-.3-.51-.7-2.08-1.21-4.35-.54-2.51-1.51-3.46-3.64-3.54h-2.21v7.88h-2.35v-17.95ZM1488.69,486.65h2.4c2.51,0,4.1-1.38,4.1-3.46,0-2.35-1.7-3.37-4.18-3.4-1.13,0-1.94.11-2.32.22v6.64Z"/>
    <path class="cls-2" d="M1510.28,487.79h-7.07v6.56h7.88v1.97h-10.23v-18.19h9.83v1.97h-7.48v5.75h7.07v1.94Z"/>
    <path class="cls-2" d="M1523.57,487.79h-7.07v6.56h7.88v1.97h-10.23v-18.19h9.83v1.97h-7.48v5.75h7.07v1.94Z"/>
    <path class="cls-2" d="M1527.43,478.12h9.8v1.97h-7.45v6.05h6.88v1.94h-6.88v8.23h-2.35v-18.19Z"/>
    <path class="cls-2" d="M1483.07,527.34l10.1-14.77v-.08h-9.23v-1.97h12.28v1.43l-10.04,14.71v.08h10.18v1.97h-13.28v-1.38Z"/>
    <path class="cls-2" d="M1514.23,519.43c0,6.26-3.81,9.58-8.45,9.58s-8.18-3.73-8.18-9.23c0-5.78,3.59-9.56,8.45-9.56s8.18,3.81,8.18,9.2ZM1500.11,519.73c0,3.89,2.11,7.37,5.8,7.37s5.83-3.43,5.83-7.56c0-3.62-1.89-7.4-5.8-7.4s-5.83,3.59-5.83,7.58Z"/>
    <path class="cls-2" d="M1517.28,528.72v-18.19h2.56l5.83,9.2c1.35,2.13,2.4,4.05,3.27,5.91l.05-.03c-.22-2.43-.27-4.64-.27-7.48v-7.61h2.21v18.19h-2.38l-5.78-9.23c-1.27-2.02-2.48-4.1-3.4-6.07l-.08.03c.13,2.29.19,4.48.19,7.5v7.77h-2.21Z"/>
    <path class="cls-2" d="M1544.47,520.19h-7.07v6.56h7.88v1.97h-10.23v-18.19h9.83v1.97h-7.48v5.75h7.07v1.94Z"/>
  </g>
  <g>
    <path class="cls-2" d="M651.93,469.54c1.19-.24,2.89-.38,4.51-.38,2.51,0,4.13.46,5.26,1.48.92.81,1.43,2.05,1.43,3.46,0,2.4-1.51,4-3.43,4.64v.08c1.4.49,2.24,1.78,2.67,3.67.59,2.54,1.03,4.29,1.4,4.99h-2.43c-.3-.51-.7-2.08-1.21-4.35-.54-2.51-1.51-3.46-3.64-3.54h-2.21v7.88h-2.35v-17.95ZM654.27,477.82h2.4c2.51,0,4.1-1.38,4.1-3.46,0-2.35-1.7-3.37-4.18-3.4-1.13,0-1.94.11-2.32.22v6.64Z"/>
    <path class="cls-2" d="M675.87,478.96h-7.07v6.56h7.88v1.97h-10.23v-18.19h9.83v1.97h-7.48v5.75h7.07v1.94Z"/>
    <path class="cls-2" d="M689.15,478.96h-7.07v6.56h7.88v1.97h-10.23v-18.19h9.83v1.97h-7.48v5.75h7.07v1.94Z"/>
    <path class="cls-2" d="M693.02,469.3h9.8v1.97h-7.45v6.05h6.88v1.94h-6.88v8.23h-2.35v-18.19Z"/>
    <path class="cls-2" d="M648.66,518.51l10.1-14.77v-.08h-9.23v-1.97h12.28v1.43l-10.04,14.71v.08h10.18v1.97h-13.28v-1.38Z"/>
    <path class="cls-2" d="M679.81,510.6c0,6.26-3.81,9.58-8.45,9.58s-8.18-3.73-8.18-9.23c0-5.78,3.59-9.56,8.45-9.56s8.18,3.81,8.18,9.2ZM665.7,510.9c0,3.89,2.11,7.37,5.8,7.37s5.83-3.43,5.83-7.56c0-3.62-1.89-7.4-5.8-7.4s-5.83,3.59-5.83,7.58Z"/>
    <path class="cls-2" d="M682.87,519.89v-18.19h2.56l5.83,9.2c1.35,2.13,2.4,4.05,3.27,5.91l.05-.03c-.22-2.43-.27-4.64-.27-7.48v-7.61h2.21v18.19h-2.38l-5.78-9.23c-1.27-2.02-2.48-4.1-3.4-6.07l-.08.03c.13,2.29.19,4.48.19,7.5v7.77h-2.21Z"/>
    <path class="cls-2" d="M710.05,511.36h-7.07v6.56h7.88v1.97h-10.23v-18.19h9.83v1.97h-7.48v5.75h7.07v1.94Z"/>
  </g>
  <g>
    <path class="cls-2" d="M1054.86,275.65c1.03-.22,2.64-.38,4.29-.38,2.35,0,3.86.4,4.99,1.32.94.7,1.51,1.78,1.51,3.21,0,1.75-1.16,3.29-3.08,4v.05c1.73.43,3.75,1.86,3.75,4.56,0,1.57-.62,2.75-1.54,3.64-1.27,1.16-3.32,1.7-6.29,1.7-1.62,0-2.86-.11-3.64-.22v-17.9ZM1057.2,283.1h2.13c2.48,0,3.94-1.3,3.94-3.05,0-2.13-1.62-2.97-4-2.97-1.08,0-1.7.08-2.08.16v5.86ZM1057.2,291.82c.46.08,1.13.11,1.97.11,2.43,0,4.67-.89,4.67-3.54,0-2.48-2.13-3.51-4.7-3.51h-1.94v6.94Z"/>
    <path class="cls-2" d="M1072.43,287.88l-1.89,5.72h-2.43l6.18-18.19h2.83l6.21,18.19h-2.51l-1.94-5.72h-6.45ZM1078.4,286.04l-1.78-5.24c-.41-1.19-.67-2.27-.95-3.32h-.05c-.27,1.08-.57,2.19-.92,3.29l-1.78,5.26h5.48Z"/>
    <path class="cls-2" d="M1086.01,275.65c1.19-.24,2.89-.38,4.51-.38,2.51,0,4.13.46,5.26,1.48.92.81,1.43,2.05,1.43,3.46,0,2.4-1.51,3.99-3.43,4.64v.08c1.4.49,2.24,1.78,2.67,3.67.59,2.54,1.03,4.29,1.4,4.99h-2.43c-.3-.51-.7-2.08-1.21-4.35-.54-2.51-1.51-3.46-3.64-3.54h-2.21v7.88h-2.35v-17.95ZM1088.36,283.94h2.4c2.51,0,4.1-1.38,4.1-3.46,0-2.35-1.7-3.37-4.18-3.4-1.13,0-1.94.11-2.32.22v6.64Z"/>
    <path class="cls-2" d="M1114.47,292.79c-1.05.38-3.13,1-5.59,1-2.75,0-5.02-.7-6.8-2.4-1.57-1.51-2.54-3.94-2.54-6.78.03-5.43,3.75-9.39,9.85-9.39,2.11,0,3.75.46,4.54.84l-.57,1.92c-.97-.43-2.19-.78-4.02-.78-4.43,0-7.32,2.75-7.32,7.31s2.78,7.34,7.02,7.34c1.54,0,2.59-.22,3.13-.49v-5.43h-3.7v-1.89h5.99v8.75Z"/>
    <path class="cls-2" d="M1127.48,285.07h-7.07v6.56h7.88v1.97h-10.23v-18.19h9.83v1.97h-7.48v5.75h7.07v1.94Z"/>
    <path class="cls-2" d="M1059.85,324.63l10.1-14.77v-.08h-9.23v-1.97h12.28v1.43l-10.04,14.71v.08h10.18v1.97h-13.28v-1.38Z"/>
    <path class="cls-2" d="M1091.01,316.72c0,6.26-3.81,9.58-8.45,9.58s-8.18-3.73-8.18-9.23c0-5.78,3.59-9.56,8.45-9.56s8.18,3.81,8.18,9.2ZM1076.89,317.01c0,3.89,2.11,7.37,5.8,7.37s5.83-3.43,5.83-7.56c0-3.62-1.89-7.4-5.8-7.4s-5.83,3.59-5.83,7.58Z"/>
    <path class="cls-2" d="M1094.06,326v-18.19h2.56l5.83,9.2c1.35,2.13,2.4,4.05,3.27,5.91l.05-.03c-.22-2.43-.27-4.64-.27-7.48v-7.61h2.21v18.19h-2.38l-5.78-9.23c-1.27-2.02-2.48-4.1-3.4-6.07l-.08.03c.13,2.29.19,4.48.19,7.5v7.77h-2.21Z"/>
    <path class="cls-2" d="M1121.25,317.47h-7.07v6.56h7.88v1.97h-10.23v-18.19h9.83v1.97h-7.48v5.75h7.07v1.94Z"/>
  </g>
  <g>
    <path class="cls-2" d="M1054.86,690.41c1.03-.22,2.64-.38,4.29-.38,2.35,0,3.86.41,4.99,1.32.94.7,1.51,1.78,1.51,3.21,0,1.75-1.16,3.29-3.08,4v.05c1.73.43,3.75,1.86,3.75,4.56,0,1.57-.62,2.75-1.54,3.64-1.27,1.16-3.32,1.7-6.29,1.7-1.62,0-2.86-.11-3.64-.22v-17.9ZM1057.2,697.86h2.13c2.48,0,3.94-1.3,3.94-3.05,0-2.13-1.62-2.97-4-2.97-1.08,0-1.7.08-2.08.16v5.86ZM1057.2,706.58c.46.08,1.13.11,1.97.11,2.43,0,4.67-.89,4.67-3.54,0-2.48-2.13-3.51-4.7-3.51h-1.94v6.94Z"/>
    <path class="cls-2" d="M1072.43,702.64l-1.89,5.72h-2.43l6.18-18.19h2.83l6.21,18.19h-2.51l-1.94-5.72h-6.45ZM1078.4,700.8l-1.78-5.24c-.41-1.19-.67-2.27-.95-3.32h-.05c-.27,1.08-.57,2.19-.92,3.29l-1.78,5.26h5.48Z"/>
    <path class="cls-2" d="M1086.01,690.41c1.19-.24,2.89-.38,4.51-.38,2.51,0,4.13.46,5.26,1.49.92.81,1.43,2.05,1.43,3.46,0,2.4-1.51,3.99-3.43,4.64v.08c1.4.49,2.24,1.78,2.67,3.67.59,2.54,1.03,4.29,1.4,4.99h-2.43c-.3-.51-.7-2.08-1.21-4.35-.54-2.51-1.51-3.46-3.64-3.54h-2.21v7.88h-2.35v-17.95ZM1088.36,698.7h2.4c2.51,0,4.1-1.38,4.1-3.46,0-2.35-1.7-3.37-4.18-3.4-1.13,0-1.94.11-2.32.22v6.64Z"/>
    <path class="cls-2" d="M1114.47,707.55c-1.05.38-3.13,1-5.59,1-2.75,0-5.02-.7-6.8-2.4-1.57-1.51-2.54-3.94-2.54-6.78.03-5.43,3.75-9.39,9.85-9.39,2.11,0,3.75.46,4.54.84l-.57,1.92c-.97-.43-2.19-.78-4.02-.78-4.43,0-7.32,2.75-7.32,7.31s2.78,7.34,7.02,7.34c1.54,0,2.59-.22,3.13-.49v-5.43h-3.7v-1.89h5.99v8.75Z"/>
    <path class="cls-2" d="M1127.48,699.83h-7.07v6.56h7.88v1.97h-10.23v-18.19h9.83v1.97h-7.48v5.75h7.07v1.94Z"/>
    <path class="cls-2" d="M1059.85,739.38l10.1-14.76v-.08h-9.23v-1.97h12.28v1.43l-10.04,14.71v.08h10.18v1.97h-13.28v-1.38Z"/>
    <path class="cls-2" d="M1091.01,731.47c0,6.26-3.81,9.58-8.45,9.58s-8.18-3.73-8.18-9.23c0-5.78,3.59-9.56,8.45-9.56s8.18,3.81,8.18,9.2ZM1076.89,731.77c0,3.89,2.11,7.37,5.8,7.37s5.83-3.43,5.83-7.56c0-3.62-1.89-7.4-5.8-7.4s-5.83,3.59-5.83,7.58Z"/>
    <path class="cls-2" d="M1094.06,740.76v-18.19h2.56l5.83,9.2c1.35,2.13,2.4,4.05,3.27,5.91l.05-.03c-.22-2.43-.27-4.64-.27-7.48v-7.61h2.21v18.19h-2.38l-5.78-9.23c-1.27-2.02-2.48-4.1-3.4-6.07l-.08.03c.13,2.29.19,4.48.19,7.5v7.77h-2.21Z"/>
    <path class="cls-2" d="M1121.25,732.23h-7.07v6.56h7.88v1.97h-10.23v-18.19h9.83v1.97h-7.48v5.75h7.07v1.94Z"/>
  </g>
  <g>
    <path class="cls-2" d="M833.02,935.07c1.13-.19,2.62-.35,4.51-.35,2.32,0,4.02.54,5.1,1.51,1,.86,1.59,2.19,1.59,3.81s-.49,2.94-1.4,3.89c-1.24,1.32-3.27,2-5.56,2-.7,0-1.35-.03-1.89-.16v7.29h-2.35v-17.98ZM835.37,943.84c.51.13,1.16.19,1.94.19,2.83,0,4.56-1.38,4.56-3.89s-1.7-3.56-4.29-3.56c-1.03,0-1.81.08-2.21.19v7.07Z"/>
    <path class="cls-2" d="M847.39,935.09c1.19-.24,2.89-.38,4.51-.38,2.51,0,4.13.46,5.26,1.48.92.81,1.43,2.05,1.43,3.46,0,2.4-1.51,4-3.43,4.64v.08c1.4.49,2.24,1.78,2.67,3.67.59,2.54,1.03,4.29,1.4,4.99h-2.43c-.3-.51-.7-2.08-1.21-4.35-.54-2.51-1.51-3.46-3.64-3.54h-2.21v7.88h-2.35v-17.95ZM849.73,943.38h2.4c2.51,0,4.1-1.38,4.1-3.46,0-2.35-1.7-3.37-4.18-3.4-1.13,0-1.94.11-2.32.22v6.64Z"/>
    <path class="cls-2" d="M877.54,943.76c0,6.26-3.81,9.58-8.45,9.58s-8.18-3.72-8.18-9.23c0-5.78,3.59-9.56,8.45-9.56s8.18,3.81,8.18,9.21ZM863.42,944.06c0,3.89,2.11,7.37,5.8,7.37s5.83-3.43,5.83-7.56c0-3.62-1.89-7.4-5.8-7.4s-5.83,3.59-5.83,7.58Z"/>
    <path class="cls-2" d="M893.31,952.45c-.86.43-2.59.86-4.8.86-5.13,0-8.99-3.24-8.99-9.2s3.86-9.56,9.5-9.56c2.27,0,3.7.49,4.32.81l-.57,1.92c-.89-.43-2.16-.76-3.67-.76-4.26,0-7.1,2.73-7.1,7.5,0,4.45,2.56,7.32,6.99,7.32,1.43,0,2.89-.3,3.83-.76l.49,1.86Z"/>
    <path class="cls-2" d="M905.68,944.52h-7.07v6.56h7.88v1.97h-10.23v-18.19h9.83v1.97h-7.48v5.75h7.07v1.94Z"/>
    <path class="cls-2" d="M909.22,950.18c1.05.65,2.59,1.19,4.21,1.19,2.4,0,3.81-1.27,3.81-3.1,0-1.7-.97-2.67-3.43-3.62-2.97-1.05-4.8-2.59-4.8-5.16,0-2.83,2.35-4.94,5.88-4.94,1.86,0,3.21.43,4.02.89l-.65,1.92c-.59-.32-1.81-.86-3.46-.86-2.48,0-3.43,1.49-3.43,2.73,0,1.7,1.11,2.54,3.62,3.51,3.08,1.19,4.64,2.67,4.64,5.34,0,2.81-2.08,5.24-6.37,5.24-1.75,0-3.67-.51-4.64-1.16l.59-1.97Z"/>
    <path class="cls-2" d="M922.53,950.18c1.05.65,2.59,1.19,4.21,1.19,2.4,0,3.81-1.27,3.81-3.1,0-1.7-.97-2.67-3.43-3.62-2.97-1.05-4.8-2.59-4.8-5.16,0-2.83,2.35-4.94,5.88-4.94,1.86,0,3.21.43,4.02.89l-.65,1.92c-.59-.32-1.81-.86-3.46-.86-2.48,0-3.43,1.49-3.43,2.73,0,1.7,1.11,2.54,3.62,3.51,3.08,1.19,4.64,2.67,4.64,5.34,0,2.81-2.08,5.24-6.37,5.24-1.75,0-3.67-.51-4.64-1.16l.59-1.97Z"/>
    <path class="cls-2" d="M951.71,943.76c0,6.26-3.81,9.58-8.45,9.58s-8.18-3.72-8.18-9.23c0-5.78,3.59-9.56,8.45-9.56s8.18,3.81,8.18,9.21ZM937.59,944.06c0,3.89,2.11,7.37,5.8,7.37s5.83-3.43,5.83-7.56c0-3.62-1.89-7.4-5.8-7.4s-5.83,3.59-5.83,7.58Z"/>
    <path class="cls-2" d="M954.76,935.09c1.19-.24,2.89-.38,4.51-.38,2.51,0,4.13.46,5.26,1.48.92.81,1.43,2.05,1.43,3.46,0,2.4-1.51,4-3.43,4.64v.08c1.4.49,2.24,1.78,2.67,3.67.59,2.54,1.03,4.29,1.4,4.99h-2.43c-.3-.51-.7-2.08-1.21-4.35-.54-2.51-1.51-3.46-3.64-3.54h-2.21v7.88h-2.35v-17.95ZM957.11,943.38h2.4c2.51,0,4.1-1.38,4.1-3.46,0-2.35-1.7-3.37-4.18-3.4-1.13,0-1.94.11-2.32.22v6.64Z"/>
    <path class="cls-2" d="M873.67,979.72l-1.89,5.72h-2.43l6.18-18.19h2.83l6.21,18.19h-2.51l-1.94-5.72h-6.45ZM879.64,977.89l-1.78-5.24c-.41-1.19-.67-2.27-.95-3.32h-.05c-.27,1.08-.57,2.19-.92,3.29l-1.78,5.26h5.48Z"/>
    <path class="cls-2" d="M887.25,967.5c1.19-.24,2.89-.38,4.51-.38,2.51,0,4.13.46,5.26,1.48.92.81,1.43,2.05,1.43,3.46,0,2.4-1.51,4-3.43,4.64v.08c1.4.49,2.24,1.78,2.67,3.67.59,2.54,1.03,4.29,1.4,4.99h-2.43c-.3-.51-.7-2.08-1.21-4.35-.54-2.51-1.51-3.46-3.64-3.54h-2.21v7.88h-2.35v-17.95ZM889.6,975.78h2.4c2.51,0,4.1-1.38,4.1-3.46,0-2.35-1.7-3.37-4.18-3.4-1.13,0-1.94.11-2.32.22v6.64Z"/>
    <path class="cls-2" d="M911.2,976.92h-7.07v6.56h7.88v1.97h-10.23v-18.19h9.83v1.97h-7.48v5.75h7.07v1.94Z"/>
    <path class="cls-2" d="M918,979.72l-1.89,5.72h-2.43l6.18-18.19h2.83l6.21,18.19h-2.51l-1.94-5.72h-6.45ZM923.97,977.89l-1.78-5.24c-.41-1.19-.67-2.27-.95-3.32h-.05c-.27,1.08-.57,2.19-.92,3.29l-1.78,5.26h5.48Z"/>
  </g>
  <g>
    <path class="cls-2" d="M1232.54,36.96c1.13-.19,2.62-.35,4.51-.35,2.32,0,4.02.54,5.1,1.51,1,.86,1.59,2.19,1.59,3.81s-.49,2.94-1.4,3.89c-1.24,1.32-3.27,2-5.56,2-.7,0-1.35-.03-1.89-.16v7.29h-2.35v-17.98ZM1234.89,45.74c.51.13,1.16.19,1.94.19,2.83,0,4.56-1.38,4.56-3.89s-1.7-3.56-4.29-3.56c-1.03,0-1.81.08-2.21.19v7.07Z"/>
    <path class="cls-2" d="M1246.91,36.99c1.19-.24,2.89-.38,4.51-.38,2.51,0,4.13.46,5.26,1.48.92.81,1.43,2.05,1.43,3.46,0,2.4-1.51,4-3.43,4.64v.08c1.4.49,2.24,1.78,2.67,3.67.59,2.54,1.03,4.29,1.4,4.99h-2.43c-.3-.51-.7-2.08-1.21-4.35-.54-2.51-1.51-3.46-3.64-3.54h-2.21v7.88h-2.35v-17.95ZM1249.25,45.28h2.4c2.51,0,4.1-1.38,4.1-3.46,0-2.35-1.7-3.37-4.18-3.4-1.13,0-1.94.11-2.32.22v6.64Z"/>
    <path class="cls-2" d="M1277.06,45.65c0,6.26-3.81,9.58-8.45,9.58s-8.18-3.72-8.18-9.23c0-5.78,3.59-9.56,8.45-9.56s8.18,3.81,8.18,9.21ZM1262.94,45.95c0,3.89,2.11,7.37,5.8,7.37s5.83-3.43,5.83-7.56c0-3.62-1.89-7.4-5.8-7.4s-5.83,3.59-5.83,7.58Z"/>
    <path class="cls-2" d="M1292.83,54.35c-.86.43-2.59.86-4.8.86-5.13,0-8.99-3.24-8.99-9.2s3.86-9.56,9.5-9.56c2.27,0,3.7.49,4.32.81l-.57,1.92c-.89-.43-2.16-.76-3.67-.76-4.26,0-7.1,2.73-7.1,7.5,0,4.45,2.56,7.32,6.99,7.32,1.43,0,2.89-.3,3.83-.76l.49,1.86Z"/>
    <path class="cls-2" d="M1305.2,46.41h-7.07v6.56h7.88v1.97h-10.23v-18.19h9.83v1.97h-7.48v5.75h7.07v1.94Z"/>
    <path class="cls-2" d="M1308.73,52.08c1.05.65,2.59,1.19,4.21,1.19,2.4,0,3.81-1.27,3.81-3.1,0-1.7-.97-2.67-3.43-3.62-2.97-1.05-4.8-2.59-4.8-5.16,0-2.83,2.35-4.94,5.88-4.94,1.86,0,3.21.43,4.02.89l-.65,1.92c-.59-.32-1.81-.86-3.46-.86-2.48,0-3.43,1.49-3.43,2.73,0,1.7,1.11,2.54,3.62,3.51,3.08,1.19,4.64,2.67,4.64,5.34,0,2.81-2.08,5.24-6.37,5.24-1.75,0-3.67-.51-4.64-1.16l.59-1.97Z"/>
    <path class="cls-2" d="M1322.05,52.08c1.05.65,2.59,1.19,4.21,1.19,2.4,0,3.81-1.27,3.81-3.1,0-1.7-.97-2.67-3.43-3.62-2.97-1.05-4.8-2.59-4.8-5.16,0-2.83,2.35-4.94,5.88-4.94,1.86,0,3.21.43,4.02.89l-.65,1.92c-.59-.32-1.81-.86-3.46-.86-2.48,0-3.43,1.49-3.43,2.73,0,1.7,1.11,2.54,3.62,3.51,3.08,1.19,4.64,2.67,4.64,5.34,0,2.81-2.08,5.24-6.37,5.24-1.75,0-3.67-.51-4.64-1.16l.59-1.97Z"/>
    <path class="cls-2" d="M1351.23,45.65c0,6.26-3.81,9.58-8.45,9.58s-8.18-3.72-8.18-9.23c0-5.78,3.59-9.56,8.45-9.56s8.18,3.81,8.18,9.21ZM1337.11,45.95c0,3.89,2.11,7.37,5.8,7.37s5.83-3.43,5.83-7.56c0-3.62-1.89-7.4-5.8-7.4s-5.83,3.59-5.83,7.58Z"/>
    <path class="cls-2" d="M1354.28,36.99c1.19-.24,2.89-.38,4.51-.38,2.51,0,4.13.46,5.26,1.48.92.81,1.43,2.05,1.43,3.46,0,2.4-1.51,4-3.43,4.64v.08c1.4.49,2.24,1.78,2.67,3.67.59,2.54,1.03,4.29,1.4,4.99h-2.43c-.3-.51-.7-2.08-1.21-4.35-.54-2.51-1.51-3.46-3.64-3.54h-2.21v7.88h-2.35v-17.95ZM1356.63,45.28h2.4c2.51,0,4.1-1.38,4.1-3.46,0-2.35-1.7-3.37-4.18-3.4-1.13,0-1.94.11-2.32.22v6.64Z"/>
    <path class="cls-2" d="M1273.19,81.62l-1.89,5.72h-2.43l6.18-18.19h2.83l6.21,18.19h-2.51l-1.94-5.72h-6.45ZM1279.15,79.78l-1.78-5.24c-.41-1.19-.67-2.27-.95-3.32h-.05c-.27,1.08-.57,2.19-.92,3.29l-1.78,5.26h5.48Z"/>
    <path class="cls-2" d="M1286.77,69.39c1.19-.24,2.89-.38,4.51-.38,2.51,0,4.13.46,5.26,1.48.92.81,1.43,2.05,1.43,3.46,0,2.4-1.51,4-3.43,4.64v.08c1.4.49,2.24,1.78,2.67,3.67.59,2.54,1.03,4.29,1.4,4.99h-2.43c-.3-.51-.7-2.08-1.21-4.35-.54-2.51-1.51-3.46-3.64-3.54h-2.21v7.88h-2.35v-17.95ZM1289.12,77.68h2.4c2.51,0,4.1-1.38,4.1-3.46,0-2.35-1.7-3.37-4.18-3.4-1.13,0-1.94.11-2.32.22v6.64Z"/>
    <path class="cls-2" d="M1310.72,78.81h-7.07v6.56h7.88v1.97h-10.23v-18.19h9.83v1.97h-7.48v5.75h7.07v1.94Z"/>
    <path class="cls-2" d="M1317.52,81.62l-1.89,5.72h-2.43l6.18-18.19h2.83l6.21,18.19h-2.51l-1.94-5.72h-6.45ZM1323.49,79.78l-1.78-5.24c-.41-1.19-.67-2.27-.95-3.32h-.05c-.27,1.08-.57,2.19-.92,3.29l-1.78,5.26h5.48Z"/>
  </g>
  <g>
    <path class="cls-2" d="M1259.73,392.79c.24,1.19.38,2.89.38,4.51,0,2.51-.46,4.13-1.48,5.26-.81.92-2.05,1.43-3.46,1.43-2.4,0-4-1.51-4.64-3.43h-.08c-.49,1.4-1.78,2.24-3.67,2.67-2.54.59-4.29,1.03-4.99,1.4v-2.43c.51-.3,2.08-.7,4.35-1.21,2.51-.54,3.46-1.51,3.54-3.64v-2.21h-7.88v-2.35h17.95ZM1251.45,395.14v2.4c0,2.51,1.38,4.1,3.46,4.1,2.35,0,3.37-1.7,3.4-4.18,0-1.13-.11-1.94-.22-2.32h-6.64Z"/>
    <path class="cls-2" d="M1251.07,422.95c-6.26,0-9.58-3.81-9.58-8.45s3.72-8.18,9.23-8.18c5.78,0,9.56,3.59,9.56,8.45s-3.81,8.18-9.21,8.18ZM1250.77,408.83c-3.89,0-7.37,2.11-7.37,5.8s3.43,5.83,7.56,5.83c3.62,0,7.4-1.89,7.4-5.8s-3.59-5.83-7.58-5.83Z"/>
    <path class="cls-2" d="M1259.73,426c.22,1.03.38,2.64.38,4.29,0,2.35-.41,3.86-1.32,4.99-.7.94-1.78,1.51-3.21,1.51-1.75,0-3.29-1.16-3.99-3.08h-.05c-.43,1.73-1.86,3.75-4.56,3.75-1.57,0-2.75-.62-3.64-1.54-1.16-1.27-1.7-3.32-1.7-6.29,0-1.62.11-2.86.22-3.64h17.9ZM1243.56,428.35c-.08.46-.11,1.13-.11,1.97,0,2.43.89,4.67,3.54,4.67,2.48,0,3.51-2.13,3.51-4.7v-1.94h-6.94ZM1252.28,428.35v2.13c0,2.48,1.3,3.94,3.05,3.94,2.13,0,2.97-1.62,2.97-4,0-1.08-.08-1.7-.16-2.08h-5.86Z"/>
    <path class="cls-2" d="M1251.07,456.18c-6.26,0-9.58-3.81-9.58-8.45s3.72-8.18,9.23-8.18c5.78,0,9.56,3.59,9.56,8.45s-3.81,8.18-9.21,8.18ZM1250.77,442.07c-3.89,0-7.37,2.11-7.37,5.8s3.43,5.83,7.56,5.83c3.62,0,7.4-1.89,7.4-5.8s-3.59-5.83-7.58-5.83Z"/>
    <path class="cls-2" d="M1257.98,462.02v-5.53h2v13.47h-2v-5.56h-16.2v-2.38h16.2Z"/>
    <path class="cls-2" d="M1244.64,477.38c-.65,1.05-1.19,2.59-1.19,4.21,0,2.4,1.27,3.81,3.1,3.81,1.7,0,2.67-.97,3.62-3.43,1.05-2.97,2.59-4.8,5.16-4.8,2.83,0,4.94,2.35,4.94,5.88,0,1.86-.43,3.21-.89,4.02l-1.92-.65c.32-.59.86-1.81.86-3.46,0-2.48-1.49-3.43-2.73-3.43-1.7,0-2.54,1.11-3.51,3.62-1.19,3.08-2.67,4.64-5.34,4.64-2.81,0-5.24-2.08-5.24-6.37,0-1.75.51-3.67,1.16-4.64l1.97.59Z"/>
    <path class="cls-2" d="M1257.98,494.47v-5.53h2v13.47h-2v-5.56h-16.2v-2.38h16.2Z"/>
    <path class="cls-2" d="M1247.51,505.35l-5.72-1.89v-2.43l18.19,6.18v2.83l-18.19,6.21v-2.51l5.72-1.94v-6.45ZM1249.34,511.32l5.24-1.78c1.19-.41,2.27-.67,3.32-.95v-.05c-1.08-.27-2.19-.57-3.29-.92l-5.26-1.78v5.48Z"/>
    <path class="cls-2" d="M1259.73,518.94c.24,1.19.38,2.89.38,4.51,0,2.51-.46,4.13-1.48,5.26-.81.92-2.05,1.43-3.46,1.43-2.4,0-4-1.51-4.64-3.43h-.08c-.49,1.4-1.78,2.24-3.67,2.67-2.54.59-4.29,1.03-4.99,1.4v-2.43c.51-.3,2.08-.7,4.35-1.21,2.51-.54,3.46-1.51,3.54-3.64v-2.21h-7.88v-2.35h17.95ZM1251.45,521.28v2.4c0,2.51,1.38,4.1,3.46,4.1,2.35,0,3.37-1.7,3.4-4.18,0-1.13-.11-1.94-.22-2.32h-6.64Z"/>
    <path class="cls-2" d="M1257.98,537.16v-5.53h2v13.47h-2v-5.56h-16.2v-2.38h16.2Z"/>
    <path class="cls-2" d="M1259.98,549.47h-18.19v-2.35h18.19v2.35Z"/>
    <path class="cls-2" d="M1241.78,553.58h18.19v2.56l-9.21,5.83c-2.13,1.35-4.05,2.4-5.91,3.27l.03.05c2.43-.22,4.64-.27,7.48-.27h7.61v2.21h-18.19v-2.38l9.23-5.78c2.02-1.27,4.1-2.48,6.07-3.4l-.03-.08c-2.29.13-4.48.19-7.5.19h-7.77v-2.21Z"/>
    <path class="cls-2" d="M1242.59,585.19c-.38-1.05-1-3.13-1-5.59,0-2.75.7-5.02,2.4-6.8,1.51-1.57,3.94-2.54,6.77-2.54,5.43.03,9.39,3.75,9.39,9.85,0,2.11-.46,3.75-.84,4.54l-1.92-.57c.43-.97.78-2.19.78-4.02,0-4.43-2.75-7.32-7.32-7.32s-7.34,2.78-7.34,7.02c0,1.54.22,2.59.49,3.13h5.43v-3.7h1.89v5.99h-8.75Z"/>
    <path class="cls-2" d="M1259.98,594.51v2.35h-16.22v7.77h-1.97v-10.12h18.19Z"/>
    <path class="cls-2" d="M1259.98,609.6h-18.19v-2.35h18.19v2.35Z"/>
    <path class="cls-2" d="M1241.78,613.7h18.19v2.56l-9.21,5.83c-2.13,1.35-4.05,2.4-5.91,3.27l.03.05c2.43-.22,4.64-.27,7.48-.27h7.61v2.21h-18.19v-2.38l9.23-5.78c2.02-1.27,4.1-2.48,6.07-3.4l-.03-.08c-2.29.13-4.48.19-7.5.19h-7.77v-2.21Z"/>
    <path class="cls-2" d="M1250.31,640.89v-7.07h-6.56v7.88h-1.97v-10.23h18.19v9.83h-1.97v-7.48h-5.75v7.07h-1.94Z"/>
  </g>
  <g>
    <path class="cls-2" d="M928.75,640.65c-.24-1.19-.38-2.89-.38-4.51,0-2.51.46-4.13,1.48-5.26.81-.92,2.05-1.43,3.46-1.43,2.4,0,4,1.51,4.64,3.43h.08c.49-1.4,1.78-2.24,3.67-2.67,2.54-.59,4.29-1.03,4.99-1.4v2.43c-.51.3-2.08.7-4.35,1.21-2.51.54-3.46,1.51-3.54,3.64v2.21h7.88v2.35h-17.95ZM937.04,638.3v-2.4c0-2.51-1.38-4.1-3.46-4.1-2.35,0-3.37,1.7-3.4,4.18,0,1.13.11,1.94.22,2.32h6.64Z"/>
    <path class="cls-2" d="M937.42,610.49c6.26,0,9.58,3.81,9.58,8.45s-3.72,8.18-9.23,8.18c-5.78,0-9.56-3.59-9.56-8.45s3.81-8.18,9.21-8.18ZM937.71,624.61c3.89,0,7.37-2.11,7.37-5.8s-3.43-5.83-7.56-5.83c-3.62,0-7.4,1.89-7.4,5.8s3.59,5.83,7.58,5.83Z"/>
    <path class="cls-2" d="M928.75,607.44c-.22-1.03-.38-2.64-.38-4.29,0-2.35.41-3.86,1.32-4.99.7-.94,1.78-1.51,3.21-1.51,1.75,0,3.29,1.16,3.99,3.08h.05c.43-1.73,1.86-3.75,4.56-3.75,1.57,0,2.75.62,3.64,1.54,1.16,1.27,1.7,3.32,1.7,6.29,0,1.62-.11,2.86-.22,3.64h-17.9ZM936.2,605.09v-2.13c0-2.48-1.3-3.94-3.05-3.94-2.13,0-2.97,1.62-2.97,4,0,1.08.08,1.7.16,2.08h5.86ZM944.92,605.09c.08-.46.11-1.13.11-1.97,0-2.43-.89-4.67-3.54-4.67-2.48,0-3.51,2.13-3.51,4.7v1.94h6.94Z"/>
    <path class="cls-2" d="M937.42,577.26c6.26,0,9.58,3.81,9.58,8.45s-3.72,8.18-9.23,8.18c-5.78,0-9.56-3.59-9.56-8.45s3.81-8.18,9.21-8.18ZM937.71,591.37c3.89,0,7.37-2.11,7.37-5.8s-3.43-5.83-7.56-5.83c-3.62,0-7.4,1.89-7.4,5.8s3.59,5.83,7.58,5.83Z"/>
    <path class="cls-2" d="M930.51,571.42v5.53h-2v-13.47h2v5.56h16.2v2.38h-16.2Z"/>
    <path class="cls-2" d="M943.84,556.06c.65-1.05,1.19-2.59,1.19-4.21,0-2.4-1.27-3.81-3.1-3.81-1.7,0-2.67.97-3.62,3.43-1.05,2.97-2.59,4.8-5.16,4.8-2.83,0-4.94-2.35-4.94-5.88,0-1.86.43-3.21.89-4.02l1.92.65c-.32.59-.86,1.81-.86,3.46,0,2.48,1.49,3.43,2.73,3.43,1.7,0,2.54-1.11,3.51-3.62,1.19-3.08,2.67-4.64,5.34-4.64,2.81,0,5.24,2.08,5.24,6.37,0,1.75-.51,3.67-1.16,4.64l-1.97-.59Z"/>
    <path class="cls-2" d="M930.51,538.97v5.53h-2v-13.47h2v5.56h16.2v2.38h-16.2Z"/>
    <path class="cls-2" d="M940.98,528.09l5.72,1.89v2.43l-18.19-6.18v-2.83l18.19-6.21v2.51l-5.72,1.94v6.45ZM939.14,522.12l-5.24,1.78c-1.19.41-2.27.67-3.32.95v.05c1.08.27,2.19.57,3.29.92l5.26,1.78v-5.48Z"/>
    <path class="cls-2" d="M928.75,514.51c-.24-1.19-.38-2.89-.38-4.51,0-2.51.46-4.13,1.48-5.26.81-.92,2.05-1.43,3.46-1.43,2.4,0,4,1.51,4.64,3.43h.08c.49-1.4,1.78-2.24,3.67-2.67,2.54-.59,4.29-1.03,4.99-1.4v2.43c-.51.3-2.08.7-4.35,1.21-2.51.54-3.46,1.51-3.54,3.64v2.21h7.88v2.35h-17.95ZM937.04,512.16v-2.4c0-2.51-1.38-4.1-3.46-4.1-2.35,0-3.37,1.7-3.4,4.18,0,1.13.11,1.94.22,2.32h6.64Z"/>
    <path class="cls-2" d="M930.51,496.28v5.53h-2v-13.47h2v5.56h16.2v2.38h-16.2Z"/>
    <path class="cls-2" d="M928.51,483.97h18.19v2.35h-18.19v-2.35Z"/>
    <path class="cls-2" d="M946.7,479.87h-18.19v-2.56l9.21-5.83c2.13-1.35,4.05-2.4,5.91-3.27l-.03-.05c-2.43.22-4.64.27-7.48.27h-7.61v-2.21h18.19v2.38l-9.23,5.78c-2.02,1.27-4.1,2.48-6.07,3.4l.03.08c2.29-.13,4.48-.19,7.5-.19h7.77v2.21Z"/>
    <path class="cls-2" d="M945.89,448.25c.38,1.05,1,3.13,1,5.59,0,2.75-.7,5.02-2.4,6.8-1.51,1.57-3.94,2.54-6.77,2.54-5.43-.03-9.39-3.75-9.39-9.85,0-2.11.46-3.75.84-4.54l1.92.57c-.43.97-.78,2.19-.78,4.02,0,4.43,2.75,7.32,7.32,7.32s7.34-2.78,7.34-7.02c0-1.54-.22-2.59-.49-3.13h-5.43v3.7h-1.89v-5.99h8.75Z"/>
    <path class="cls-2" d="M928.51,438.93v-2.35h16.22v-7.77h1.97v10.12h-18.19Z"/>
    <path class="cls-2" d="M928.51,423.84h18.19v2.35h-18.19v-2.35Z"/>
    <path class="cls-2" d="M946.7,419.74h-18.19v-2.56l9.21-5.83c2.13-1.35,4.05-2.4,5.91-3.27l-.03-.05c-2.43.22-4.64.27-7.48.27h-7.61v-2.21h18.19v2.38l-9.23,5.78c-2.02,1.27-4.1,2.48-6.07,3.4l.03.08c2.29-.13,4.48-.19,7.5-.19h7.77v2.21Z"/>
    <path class="cls-2" d="M938.17,392.55v7.07h6.56v-7.88h1.97v10.23h-18.19v-9.83h1.97v7.48h5.75v-7.07h1.94Z"/>
  </g>
  <g>
    <path class="cls-5" d="M2031.57,142.81c-.86.43-2.59.86-4.8.86-5.13,0-8.99-3.24-8.99-9.2s3.86-9.56,9.5-9.56c2.27,0,3.7.49,4.32.81l-.57,1.92c-.89-.43-2.16-.76-3.67-.76-4.26,0-7.1,2.73-7.1,7.5,0,4.45,2.56,7.31,6.99,7.31,1.43,0,2.89-.3,3.83-.76l.49,1.86Z"/>
    <path class="cls-5" d="M2049.49,134.12c0,6.26-3.81,9.58-8.45,9.58s-8.18-3.73-8.18-9.23c0-5.78,3.59-9.56,8.45-9.56s8.18,3.81,8.18,9.2ZM2035.38,134.42c0,3.89,2.11,7.37,5.8,7.37s5.83-3.43,5.83-7.56c0-3.62-1.89-7.4-5.8-7.4s-5.83,3.59-5.83,7.58Z"/>
    <path class="cls-5" d="M2052.55,125.46c1.19-.24,2.89-.38,4.51-.38,2.51,0,4.13.46,5.26,1.48.92.81,1.43,2.05,1.43,3.46,0,2.4-1.51,3.99-3.43,4.64v.08c1.4.49,2.24,1.78,2.67,3.67.59,2.54,1.03,4.29,1.4,4.99h-2.43c-.3-.51-.7-2.08-1.21-4.35-.54-2.51-1.51-3.46-3.64-3.54h-2.21v7.88h-2.35v-17.95ZM2054.9,133.74h2.4c2.51,0,4.1-1.38,4.1-3.46,0-2.35-1.7-3.37-4.18-3.4-1.13,0-1.94.11-2.32.22v6.64Z"/>
    <path class="cls-5" d="M2070.15,137.69l-1.89,5.72h-2.43l6.18-18.19h2.83l6.21,18.19h-2.51l-1.94-5.72h-6.45ZM2076.12,135.85l-1.78-5.24c-.41-1.19-.67-2.27-.95-3.32h-.05c-.27,1.08-.57,2.19-.92,3.29l-1.78,5.26h5.48Z"/>
    <path class="cls-5" d="M2083.73,125.21h2.35v16.22h7.77v1.97h-10.12v-18.19Z"/>
    <path class="cls-5" d="M2009.64,172.95c1.05.65,2.59,1.19,4.21,1.19,2.4,0,3.81-1.27,3.81-3.1,0-1.7-.97-2.67-3.43-3.62-2.97-1.05-4.8-2.59-4.8-5.16,0-2.83,2.35-4.94,5.88-4.94,1.86,0,3.21.43,4.02.89l-.65,1.92c-.59-.32-1.81-.86-3.46-.86-2.48,0-3.43,1.48-3.43,2.73,0,1.7,1.11,2.54,3.62,3.51,3.08,1.19,4.64,2.67,4.64,5.34,0,2.81-2.08,5.24-6.37,5.24-1.75,0-3.67-.51-4.64-1.16l.59-1.97Z"/>
    <path class="cls-5" d="M2026.73,159.61h-5.53v-2h13.47v2h-5.56v16.2h-2.38v-16.2Z"/>
    <path class="cls-5" d="M2037.62,170.09l-1.89,5.72h-2.43l6.18-18.19h2.83l6.21,18.19h-2.51l-1.94-5.72h-6.45ZM2043.58,168.25l-1.78-5.24c-.41-1.19-.67-2.27-.95-3.32h-.05c-.27,1.08-.57,2.19-.92,3.29l-1.78,5.26h5.48Z"/>
    <path class="cls-5" d="M2052.57,159.61h-5.53v-2h13.47v2h-5.56v16.2h-2.38v-16.2Z"/>
    <path class="cls-5" d="M2064.89,157.61v18.19h-2.35v-18.19h2.35Z"/>
    <path class="cls-5" d="M2084.54,166.52c0,6.26-3.81,9.58-8.45,9.58s-8.18-3.73-8.18-9.23c0-5.78,3.59-9.56,8.45-9.56s8.18,3.81,8.18,9.2ZM2070.42,166.82c0,3.89,2.11,7.37,5.8,7.37s5.83-3.43,5.83-7.56c0-3.62-1.89-7.4-5.8-7.4s-5.83,3.59-5.83,7.58Z"/>
    <path class="cls-5" d="M2087.59,175.81v-18.19h2.56l5.83,9.2c1.35,2.13,2.4,4.05,3.27,5.91l.05-.03c-.22-2.43-.27-4.64-.27-7.48v-7.61h2.21v18.19h-2.38l-5.78-9.23c-1.27-2.02-2.48-4.1-3.4-6.07l-.08.03c.13,2.29.19,4.48.19,7.5v7.77h-2.21Z"/>
  </g>
  <g>
    <path class="cls-5" d="M2031.57,854.88c-.86.43-2.59.86-4.8.86-5.13,0-8.99-3.24-8.99-9.2s3.86-9.56,9.5-9.56c2.27,0,3.7.49,4.32.81l-.57,1.92c-.89-.43-2.16-.76-3.67-.76-4.26,0-7.1,2.73-7.1,7.5,0,4.45,2.56,7.31,6.99,7.31,1.43,0,2.89-.3,3.83-.76l.49,1.86Z"/>
    <path class="cls-5" d="M2049.49,846.19c0,6.26-3.81,9.58-8.45,9.58s-8.18-3.73-8.18-9.23c0-5.78,3.59-9.56,8.45-9.56s8.18,3.81,8.18,9.2ZM2035.38,846.49c0,3.89,2.11,7.37,5.8,7.37s5.83-3.43,5.83-7.56c0-3.62-1.89-7.4-5.8-7.4s-5.83,3.59-5.83,7.58Z"/>
    <path class="cls-5" d="M2052.55,837.53c1.19-.24,2.89-.38,4.51-.38,2.51,0,4.13.46,5.26,1.48.92.81,1.43,2.05,1.43,3.46,0,2.4-1.51,4-3.43,4.64v.08c1.4.49,2.24,1.78,2.67,3.67.59,2.54,1.03,4.29,1.4,4.99h-2.43c-.3-.51-.7-2.08-1.21-4.35-.54-2.51-1.51-3.46-3.64-3.54h-2.21v7.88h-2.35v-17.95ZM2054.9,845.81h2.4c2.51,0,4.1-1.38,4.1-3.46,0-2.35-1.7-3.37-4.18-3.4-1.13,0-1.94.11-2.32.22v6.64Z"/>
    <path class="cls-5" d="M2070.15,849.76l-1.89,5.72h-2.43l6.18-18.19h2.83l6.21,18.19h-2.51l-1.94-5.72h-6.45ZM2076.12,847.92l-1.78-5.24c-.41-1.19-.67-2.27-.95-3.32h-.05c-.27,1.08-.57,2.19-.92,3.29l-1.78,5.26h5.48Z"/>
    <path class="cls-5" d="M2083.73,837.28h2.35v16.22h7.77v1.97h-10.12v-18.19Z"/>
    <path class="cls-5" d="M2009.64,885.02c1.05.65,2.59,1.19,4.21,1.19,2.4,0,3.81-1.27,3.81-3.1,0-1.7-.97-2.67-3.43-3.62-2.97-1.05-4.8-2.59-4.8-5.16,0-2.83,2.35-4.94,5.88-4.94,1.86,0,3.21.43,4.02.89l-.65,1.92c-.59-.32-1.81-.86-3.46-.86-2.48,0-3.43,1.48-3.43,2.73,0,1.7,1.11,2.54,3.62,3.51,3.08,1.19,4.64,2.67,4.64,5.34,0,2.81-2.08,5.24-6.37,5.24-1.75,0-3.67-.51-4.64-1.16l.59-1.97Z"/>
    <path class="cls-5" d="M2026.73,871.68h-5.53v-2h13.47v2h-5.56v16.2h-2.38v-16.2Z"/>
    <path class="cls-5" d="M2037.62,882.15l-1.89,5.72h-2.43l6.18-18.19h2.83l6.21,18.19h-2.51l-1.94-5.72h-6.45ZM2043.58,880.32l-1.78-5.24c-.41-1.19-.67-2.27-.95-3.32h-.05c-.27,1.08-.57,2.19-.92,3.29l-1.78,5.26h5.48Z"/>
    <path class="cls-5" d="M2052.57,871.68h-5.53v-2h13.47v2h-5.56v16.2h-2.38v-16.2Z"/>
    <path class="cls-5" d="M2064.89,869.68v18.19h-2.35v-18.19h2.35Z"/>
    <path class="cls-5" d="M2084.54,878.59c0,6.26-3.81,9.58-8.45,9.58s-8.18-3.72-8.18-9.23c0-5.78,3.59-9.56,8.45-9.56s8.18,3.81,8.18,9.21ZM2070.42,878.89c0,3.89,2.11,7.37,5.8,7.37s5.83-3.43,5.83-7.56c0-3.62-1.89-7.4-5.8-7.4s-5.83,3.59-5.83,7.58Z"/>
    <path class="cls-5" d="M2087.59,887.88v-18.19h2.56l5.83,9.21c1.35,2.13,2.4,4.05,3.27,5.91l.05-.03c-.22-2.43-.27-4.64-.27-7.48v-7.61h2.21v18.19h-2.38l-5.78-9.23c-1.27-2.02-2.48-4.1-3.4-6.07l-.08.03c.13,2.29.19,4.48.19,7.5v7.77h-2.21Z"/>
  </g>
  <g>
    <path class="cls-5" d="M98.57,142.81c-.86.43-2.59.86-4.8.86-5.13,0-8.99-3.24-8.99-9.2s3.86-9.56,9.5-9.56c2.27,0,3.7.49,4.32.81l-.57,1.92c-.89-.43-2.16-.76-3.67-.76-4.26,0-7.1,2.73-7.1,7.5,0,4.45,2.56,7.31,6.99,7.31,1.43,0,2.89-.3,3.83-.76l.49,1.86Z"/>
    <path class="cls-5" d="M116.5,134.12c0,6.26-3.81,9.58-8.45,9.58s-8.18-3.73-8.18-9.23c0-5.78,3.59-9.56,8.45-9.56s8.18,3.81,8.18,9.2ZM102.38,134.42c0,3.89,2.11,7.37,5.8,7.37s5.83-3.43,5.83-7.56c0-3.62-1.89-7.4-5.8-7.4s-5.83,3.59-5.83,7.58Z"/>
    <path class="cls-5" d="M119.55,125.46c1.19-.24,2.89-.38,4.51-.38,2.51,0,4.13.46,5.26,1.48.92.81,1.43,2.05,1.43,3.46,0,2.4-1.51,3.99-3.43,4.64v.08c1.4.49,2.24,1.78,2.67,3.67.59,2.54,1.03,4.29,1.4,4.99h-2.43c-.3-.51-.7-2.08-1.21-4.35-.54-2.51-1.51-3.46-3.64-3.54h-2.21v7.88h-2.35v-17.95ZM121.9,133.74h2.4c2.51,0,4.1-1.38,4.1-3.46,0-2.35-1.7-3.37-4.18-3.4-1.13,0-1.94.11-2.32.22v6.64Z"/>
    <path class="cls-5" d="M137.16,137.69l-1.89,5.72h-2.43l6.18-18.19h2.83l6.21,18.19h-2.51l-1.94-5.72h-6.45ZM143.12,135.85l-1.78-5.24c-.41-1.19-.67-2.27-.95-3.32h-.05c-.27,1.08-.57,2.19-.92,3.29l-1.78,5.26h5.48Z"/>
    <path class="cls-5" d="M150.74,125.21h2.35v16.22h7.77v1.97h-10.12v-18.19Z"/>
    <path class="cls-5" d="M76.65,172.95c1.05.65,2.59,1.19,4.21,1.19,2.4,0,3.81-1.27,3.81-3.1,0-1.7-.97-2.67-3.43-3.62-2.97-1.05-4.8-2.59-4.8-5.16,0-2.83,2.35-4.94,5.88-4.94,1.86,0,3.21.43,4.02.89l-.65,1.92c-.59-.32-1.81-.86-3.46-.86-2.48,0-3.43,1.48-3.43,2.73,0,1.7,1.11,2.54,3.62,3.51,3.08,1.19,4.64,2.67,4.64,5.34,0,2.81-2.08,5.24-6.37,5.24-1.75,0-3.67-.51-4.64-1.16l.59-1.97Z"/>
    <path class="cls-5" d="M93.74,159.61h-5.53v-2h13.47v2h-5.56v16.2h-2.38v-16.2Z"/>
    <path class="cls-5" d="M104.62,170.09l-1.89,5.72h-2.43l6.18-18.19h2.83l6.21,18.19h-2.51l-1.94-5.72h-6.45ZM110.59,168.25l-1.78-5.24c-.41-1.19-.67-2.27-.95-3.32h-.05c-.27,1.08-.57,2.19-.92,3.29l-1.78,5.26h5.48Z"/>
    <path class="cls-5" d="M119.58,159.61h-5.53v-2h13.47v2h-5.56v16.2h-2.38v-16.2Z"/>
    <path class="cls-5" d="M131.89,157.61v18.19h-2.35v-18.19h2.35Z"/>
    <path class="cls-5" d="M151.54,166.52c0,6.26-3.81,9.58-8.45,9.58s-8.18-3.73-8.18-9.23c0-5.78,3.59-9.56,8.45-9.56s8.18,3.81,8.18,9.2ZM137.43,166.82c0,3.89,2.11,7.37,5.8,7.37s5.83-3.43,5.83-7.56c0-3.62-1.89-7.4-5.8-7.4s-5.83,3.59-5.83,7.58Z"/>
    <path class="cls-5" d="M154.6,175.81v-18.19h2.56l5.83,9.2c1.35,2.13,2.4,4.05,3.27,5.91l.05-.03c-.22-2.43-.27-4.64-.27-7.48v-7.61h2.21v18.19h-2.38l-5.78-9.23c-1.27-2.02-2.48-4.1-3.4-6.07l-.08.03c.13,2.29.19,4.48.19,7.5v7.77h-2.21Z"/>
  </g>
  <g>
    <path class="cls-5" d="M98.57,854.88c-.86.43-2.59.86-4.8.86-5.13,0-8.99-3.24-8.99-9.2s3.86-9.56,9.5-9.56c2.27,0,3.7.49,4.32.81l-.57,1.92c-.89-.43-2.16-.76-3.67-.76-4.26,0-7.1,2.73-7.1,7.5,0,4.45,2.56,7.31,6.99,7.31,1.43,0,2.89-.3,3.83-.76l.49,1.86Z"/>
    <path class="cls-5" d="M116.5,846.19c0,6.26-3.81,9.58-8.45,9.58s-8.18-3.73-8.18-9.23c0-5.78,3.59-9.56,8.45-9.56s8.18,3.81,8.18,9.2ZM102.38,846.49c0,3.89,2.11,7.37,5.8,7.37s5.83-3.43,5.83-7.56c0-3.62-1.89-7.4-5.8-7.4s-5.83,3.59-5.83,7.58Z"/>
    <path class="cls-5" d="M119.55,837.53c1.19-.24,2.89-.38,4.51-.38,2.51,0,4.13.46,5.26,1.48.92.81,1.43,2.05,1.43,3.46,0,2.4-1.51,4-3.43,4.64v.08c1.4.49,2.24,1.78,2.67,3.67.59,2.54,1.03,4.29,1.4,4.99h-2.43c-.3-.51-.7-2.08-1.21-4.35-.54-2.51-1.51-3.46-3.64-3.54h-2.21v7.88h-2.35v-17.95ZM121.9,845.81h2.4c2.51,0,4.1-1.38,4.1-3.46,0-2.35-1.7-3.37-4.18-3.4-1.13,0-1.94.11-2.32.22v6.64Z"/>
    <path class="cls-5" d="M137.16,849.76l-1.89,5.72h-2.43l6.18-18.19h2.83l6.21,18.19h-2.51l-1.94-5.72h-6.45ZM143.12,847.92l-1.78-5.24c-.41-1.19-.67-2.27-.95-3.32h-.05c-.27,1.08-.57,2.19-.92,3.29l-1.78,5.26h5.48Z"/>
    <path class="cls-5" d="M150.74,837.28h2.35v16.22h7.77v1.97h-10.12v-18.19Z"/>
    <path class="cls-5" d="M76.65,885.02c1.05.65,2.59,1.19,4.21,1.19,2.4,0,3.81-1.27,3.81-3.1,0-1.7-.97-2.67-3.43-3.62-2.97-1.05-4.8-2.59-4.8-5.16,0-2.83,2.35-4.94,5.88-4.94,1.86,0,3.21.43,4.02.89l-.65,1.92c-.59-.32-1.81-.86-3.46-.86-2.48,0-3.43,1.48-3.43,2.73,0,1.7,1.11,2.54,3.62,3.51,3.08,1.19,4.64,2.67,4.64,5.34,0,2.81-2.08,5.24-6.37,5.24-1.75,0-3.67-.51-4.64-1.16l.59-1.97Z"/>
    <path class="cls-5" d="M93.74,871.68h-5.53v-2h13.47v2h-5.56v16.2h-2.38v-16.2Z"/>
    <path class="cls-5" d="M104.62,882.15l-1.89,5.72h-2.43l6.18-18.19h2.83l6.21,18.19h-2.51l-1.94-5.72h-6.45ZM110.59,880.32l-1.78-5.24c-.41-1.19-.67-2.27-.95-3.32h-.05c-.27,1.08-.57,2.19-.92,3.29l-1.78,5.26h5.48Z"/>
    <path class="cls-5" d="M119.58,871.68h-5.53v-2h13.47v2h-5.56v16.2h-2.38v-16.2Z"/>
    <path class="cls-5" d="M131.89,869.68v18.19h-2.35v-18.19h2.35Z"/>
    <path class="cls-5" d="M151.54,878.59c0,6.26-3.81,9.58-8.45,9.58s-8.18-3.72-8.18-9.23c0-5.78,3.59-9.56,8.45-9.56s8.18,3.81,8.18,9.21ZM137.43,878.89c0,3.89,2.11,7.37,5.8,7.37s5.83-3.43,5.83-7.56c0-3.62-1.89-7.4-5.8-7.4s-5.83,3.59-5.83,7.58Z"/>
    <path class="cls-5" d="M154.6,887.88v-18.19h2.56l5.83,9.21c1.35,2.13,2.4,4.05,3.27,5.91l.05-.03c-.22-2.43-.27-4.64-.27-7.48v-7.61h2.21v18.19h-2.38l-5.78-9.23c-1.27-2.02-2.48-4.1-3.4-6.07l-.08.03c.13,2.29.19,4.48.19,7.5v7.77h-2.21Z"/>
  </g>
</svg>